<?xml version="1.0" standalone="no"?>
<!DOCTYPE svg PUBLIC "-//W3C//DTD SVG 20010904//EN"
 "http://www.w3.org/TR/2001/REC-SVG-20010904/DTD/svg10.dtd">
<svg version="1.0" xmlns="http://www.w3.org/2000/svg"
 width="730.000000pt" height="78.000000pt" viewBox="0 0 730.000000 78.000000"
 preserveAspectRatio="xMidYMid meet">

<g transform="translate(0.000000,78.000000) scale(0.100000,-0.100000)"
fill="#000000" stroke="none">
<path d="M273 732 c-100 -36 -171 -101 -216 -199 -18 -39 -22 -66 -22 -143 0
-82 4 -103 27 -152 34 -73 103 -142 176 -176 49 -23 70 -27 152 -27 82 0 103
4 152 27 73 34 142 103 176 176 23 49 27 70 27 152 0 82 -4 103 -27 152 -34
73 -104 143 -176 176 -76 35 -194 41 -269 14z m145 -68 c32 -22 74 -110 77
-163 3 -37 9 -50 37 -73 l33 -28 33 35 c23 25 32 44 32 70 0 38 -6 41 -85 48
-38 3 -38 4 8 5 27 1 57 -3 68 -8 29 -16 25 -69 -11 -118 l-30 -42 30 -42 c36
-49 40 -102 11 -118 -11 -5 -41 -9 -68 -8 -46 1 -46 2 -8 5 77 7 85 11 85 45
0 31 -34 94 -56 102 -7 2 -26 -8 -43 -22 -26 -22 -32 -35 -34 -72 -1 -25 -4
-47 -7 -50 -3 -3 -15 -26 -27 -52 -12 -26 -34 -55 -48 -64 -23 -15 -27 -15
-50 0 -14 9 -36 38 -48 64 -12 26 -24 49 -27 52 -3 3 -6 25 -7 50 -2 37 -8 50
-34 72 -17 14 -36 24 -43 22 -22 -8 -56 -71 -56 -102 0 -34 8 -38 85 -45 38
-3 38 -4 -8 -5 -27 -1 -57 3 -68 8 -29 16 -25 69 11 118 l30 42 -30 42 c-36
49 -40 102 -11 118 11 5 41 9 68 8 46 -1 46 -2 8 -5 -79 -7 -85 -10 -85 -48 0
-26 9 -45 33 -70 l32 -35 33 28 c28 23 34 36 37 73 4 70 68 179 105 179 3 0
16 -7 28 -16z m-173 -184 c9 -14 -1 -13 -35 5 -17 9 -30 20 -30 26 0 11 55
-15 65 -31z m355 30 c0 -11 -60 -44 -67 -36 -3 3 10 14 28 25 39 24 39 24 39
11z m-365 -216 c-32 -25 -55 -36 -55 -26 0 13 41 41 60 41 11 0 10 -4 -5 -15z
m340 0 c29 -19 35 -40 8 -25 -10 5 -27 16 -38 25 -27 21 -1 21 30 0z"/>
<path d="M367 659 c-17 -10 -57 -79 -57 -99 0 -6 17 -18 37 -26 30 -13 44 -14
76 -4 21 6 40 17 43 25 7 18 -32 92 -55 105 -23 12 -22 12 -44 -1z m33 -59 c0
-22 -4 -40 -10 -40 -5 0 -10 18 -10 40 0 22 5 40 10 40 6 0 10 -18 10 -40z"/>
<path d="M300 516 c0 -8 -3 -21 -6 -30 -9 -22 15 -20 46 4 21 17 23 21 10 30
-22 14 -50 12 -50 -4z"/>
<path d="M430 520 c-13 -9 -11 -13 10 -30 31 -24 55 -26 46 -4 -3 9 -6 22 -6
30 0 16 -28 18 -50 4z"/>
<path d="M332 473 l-43 -26 3 -59 3 -59 48 -27 47 -27 48 27 47 27 3 59 3 60
-45 26 c-54 32 -60 32 -114 -1z"/>
<path d="M245 410 c-17 -19 -17 -21 0 -40 27 -29 35 -25 35 20 0 45 -8 49 -35
20z"/>
<path d="M500 390 c0 -45 8 -49 35 -20 17 19 17 21 0 40 -27 29 -35 25 -35
-20z"/>
<path d="M294 294 c3 -9 6 -22 6 -30 0 -16 28 -18 50 -4 13 9 11 13 -10 30
-31 24 -55 26 -46 4z"/>
<path d="M440 290 c-21 -17 -23 -21 -10 -30 22 -14 50 -12 50 4 0 8 3 21 6 30
9 22 -15 20 -46 -4z"/>
<path d="M342 245 c-28 -12 -32 -18 -26 -37 38 -124 110 -124 148 0 6 19 2 25
-28 37 -43 18 -52 18 -94 0z m58 -60 c0 -19 -4 -35 -10 -35 -5 0 -10 16 -10
35 0 19 5 35 10 35 6 0 10 -16 10 -35z"/>
</g>
</svg>
